<svg width="20" height="20" viewBox="0 0 20 20" fill="none" xmlns="http://www.w3.org/2000/svg">
<g clip-path="url(#clip0_5701_36376)">
<path d="M9.11375 9.40945C8.58603 9.04723 8.00219 8.77032 7.39585 8.59121C7.17718 9.20124 7.11369 9.60108 7.11253 9.60874C7.06884 9.89787 6.81998 10.1052 6.53627 10.1052C6.50728 10.1052 6.47791 10.103 6.44839 10.0986C6.12974 10.0504 5.9104 9.75307 5.95853 9.43442C5.9637 9.40019 6.02808 8.99257 6.23652 8.37293C6.08862 8.36076 5.94063 8.35449 5.793 8.35449C2.59872 8.35445 0 10.9532 0 14.1474C0 17.3416 2.59872 19.9404 5.79296 19.9404C6.98936 19.9404 8.149 19.5711 9.11869 18.8908C7.9583 17.6468 7.24701 15.9788 7.24701 14.1474C7.24701 12.3187 7.95628 10.6528 9.11375 9.40945Z" fill="white"/>
<path d="M7.78783 7.45936C7.78783 7.45936 7.94336 7.26263 8.49916 6.46906C9.17571 5.50315 10.0301 4.68441 11.0387 4.03556C11.312 3.85972 11.5977 3.69703 11.8941 3.54597C11.3922 5.28654 11.5596 6.71131 11.8295 7.69293L11.8913 7.66243C12.2221 7.49912 12.5758 7.38704 12.9403 7.33009C12.5643 5.91182 12.7006 4.45928 13.348 2.93517C14.0437 2.69903 14.7862 2.51871 15.5725 2.39683C15.891 2.34747 16.1091 2.04928 16.0598 1.73079C16.0104 1.41233 15.7124 1.1942 15.3937 1.24353C14.4507 1.38973 13.5625 1.61369 12.7343 1.91304C12.7278 1.91514 12.7215 1.91744 12.7151 1.91977C11.8828 2.22212 11.1116 2.60088 10.4072 3.05405C9.27063 3.78526 8.30706 4.70896 7.54317 5.79951C6.86312 6.77044 6.62842 7.24104 6.62842 7.24104C7.01826 7.27317 7.40744 7.34701 7.78783 7.45936Z" fill="white"/>
<path d="M14.206 8.35449C13.9061 8.35449 13.6115 8.37741 13.3237 8.42156C13.5504 8.88956 13.7569 9.14888 13.7602 9.15296C13.9649 9.40186 13.9282 9.76859 13.6793 9.9733C13.571 10.0624 13.44 10.1057 13.3097 10.1057C13.1406 10.1057 12.9728 10.0328 12.8571 9.89219C12.8377 9.86857 12.501 9.4536 12.1766 8.72165C9.98039 9.5458 8.41309 11.6669 8.41309 14.1474C8.41309 17.3416 11.0118 19.9404 14.206 19.9404C17.4003 19.9404 19.999 17.3417 19.999 14.1474C19.999 10.9531 17.4003 8.35449 14.206 8.35449Z" fill="white"/>
<path d="M0.532402 2.6617C1.36414 4.86833 3.8272 5.98292 6.03386 5.15119L6.89761 4.82561C6.24977 4.40675 5.007 3.68429 3.75757 3.40167C3.44324 3.33055 3.24604 3.01813 3.31715 2.7038C3.38827 2.38947 3.70061 2.19254 4.01506 2.26338C5.39361 2.57519 6.71392 3.32172 7.45201 3.79303L7.08684 2.82424C6.2551 0.617617 3.79203 -0.496976 1.58537 0.334757L0.36979 0.792911C0.107822 0.891684 -0.0245244 1.18411 0.07421 1.44612L0.532402 2.6617Z" fill="white"/>
</g>
<defs>
<clipPath id="clip0_5701_36376">
<rect width="20" height="20" fill="white"/>
</clipPath>
</defs>
</svg>
