<svg width="21" height="20" viewBox="0 0 21 20" fill="none" xmlns="http://www.w3.org/2000/svg">
<path d="M11.0383 1.28765L13.3835 6.45807C13.4962 6.70646 13.7312 6.87724 14.0023 6.90766L19.6444 7.5403C20.3055 7.61442 20.5714 8.43282 20.0801 8.88139L15.8874 12.7095C15.686 12.8934 15.5963 13.1698 15.6511 13.4369L16.7929 18.9983C16.9267 19.65 16.2305 20.1558 15.6521 19.8272L10.7157 17.0227C10.4786 16.888 10.188 16.888 9.95089 17.0227L5.01452 19.8272C4.43609 20.1558 3.73991 19.65 3.87372 18.9983L5.01554 13.4369C5.07037 13.1698 4.98061 12.8934 4.77918 12.7095L0.586457 8.88139C0.0951605 8.43282 0.361074 7.61442 1.02221 7.5403L6.66429 6.90766C6.93533 6.87728 7.1704 6.7065 7.28309 6.45807L9.62825 1.28765C9.90303 0.681784 10.7636 0.681784 11.0383 1.28765Z" fill="#FFDD00"/>
<path d="M10.7157 17.0227L15.6521 19.8272C16.2305 20.1559 16.9267 19.6501 16.7929 18.9984L15.6511 13.437C15.5963 13.1698 15.6861 12.8935 15.8875 12.7096L20.0802 8.88144C20.5715 8.43287 20.3055 7.61447 19.6444 7.54035L14.0023 6.90775C13.7313 6.87733 13.4962 6.70655 13.3835 6.45816L11.0383 1.28766C10.9009 0.98471 10.6171 0.833252 10.3333 0.833252V16.9216C10.4652 16.9216 10.5971 16.9553 10.7157 17.0227Z" fill="#FFB900"/>
<path d="M10.6535 6.77235L11.7188 9.121C11.77 9.23385 11.8768 9.31142 11.9999 9.32522L14.5628 9.61257C14.8632 9.64624 14.9839 10.018 14.7608 10.2218L12.8562 11.9607C12.7647 12.0442 12.7239 12.1698 12.7489 12.2911L13.2675 14.8174C13.3283 15.1134 13.0121 15.3432 12.7493 15.1939L10.5069 13.9199C10.3992 13.8588 10.2672 13.8588 10.1595 13.9199L7.91715 15.1939C7.65441 15.3432 7.33817 15.1134 7.39892 14.8174L7.91758 12.2911C7.94251 12.1698 7.90171 12.0442 7.81022 11.9607L5.90571 10.2218C5.68252 10.018 5.80333 9.64624 6.10365 9.61257L8.66656 9.32522C8.78968 9.31142 8.89645 9.23385 8.94764 9.121L10.0129 6.77235C10.1378 6.49711 10.5287 6.49711 10.6535 6.77235Z" fill="#FFEE8C"/>
<path d="M10.507 13.9199L12.7494 15.1939C13.0121 15.3431 13.3284 15.1134 13.2676 14.8174L12.749 12.2911C12.724 12.1698 12.7648 12.0442 12.8563 11.9607L14.7608 10.2218C14.984 10.018 14.8632 9.64622 14.5629 9.61255L12 9.3252C11.8769 9.3114 11.7701 9.23379 11.7189 9.12098L10.6536 6.77233C10.5912 6.63471 10.4622 6.56592 10.3333 6.56592V13.8741C10.3932 13.874 10.4532 13.8893 10.507 13.9199Z" fill="#FFDD00"/>
<path d="M13.1429 15.9546C13.0431 15.9546 12.9429 15.9293 12.8525 15.8779L10.3334 14.4467L7.81431 15.8779C7.6137 15.9919 7.36496 15.978 7.17826 15.8424C6.99156 15.7067 6.90149 15.4744 6.9479 15.2485L7.5306 12.4104L5.39099 10.4568C5.2206 10.3012 5.15694 10.0604 5.22828 9.8409C5.29954 9.62148 5.49263 9.46402 5.72197 9.43831L8.60116 9.11548L9.79796 6.47693C9.89329 6.26683 10.1026 6.13184 10.3334 6.13184C10.5641 6.13184 10.7735 6.26679 10.8688 6.47693L12.0656 9.11548L14.9448 9.43831C15.1741 9.46398 15.3671 9.62148 15.4385 9.8409C15.5098 10.0604 15.4461 10.3012 15.2758 10.4568L13.1362 12.4104L13.7189 15.2485C13.7653 15.4745 13.6752 15.7068 13.4885 15.8424C13.386 15.9168 13.2647 15.9546 13.1429 15.9546ZM10.3334 13.1825C10.4337 13.1825 10.5338 13.2081 10.6239 13.2592L12.3063 14.2151L11.9172 12.3196C11.8755 12.1167 11.9437 11.9069 12.0966 11.7672L13.5256 10.4625L11.6026 10.2468C11.3968 10.2237 11.2182 10.0941 11.1327 9.90542L10.3334 8.14316L9.53409 9.90542C9.44852 10.094 9.27002 10.2237 9.06415 10.2468L7.14122 10.4625L8.57019 11.7672C8.72314 11.9068 8.79134 12.1167 8.74967 12.3196L8.36049 14.2151L10.0429 13.2592C10.1331 13.2081 10.2333 13.1825 10.3334 13.1825Z" fill="#FFF7D2"/>
<path d="M12.8524 15.8779C12.9428 15.9293 13.0429 15.9547 13.1428 15.9547C13.2646 15.9547 13.3859 15.9169 13.4884 15.8424C13.6751 15.7068 13.7652 15.4745 13.7188 15.2485L13.1361 12.4104L15.2757 10.4568C15.4461 10.3013 15.5097 10.0604 15.4384 9.84094C15.3671 9.62152 15.174 9.46406 14.9447 9.43835L12.0655 9.11552L10.8687 6.47693C10.7735 6.26683 10.5641 6.13184 10.3333 6.13184V8.1432V8.14316L11.1326 9.90542C11.2182 10.094 11.3967 10.2237 11.6025 10.2468L13.5255 10.4625L12.0966 11.7672C11.9436 11.9068 11.8754 12.1167 11.9171 12.3196L12.3062 14.2151L10.6238 13.2592C10.5337 13.2081 10.4335 13.1825 10.3334 13.1825V14.4467L12.8524 15.8779Z" fill="#FFEE8C"/>
</svg>
