<svg width="38" height="38" viewBox="0 0 38 38" fill="none" xmlns="http://www.w3.org/2000/svg">
<g clip-path="url(#clip0_5701_37141)">
<path d="M35.268 12.5003L22.9377 1.49341C22.9246 1.48031 22.9049 1.46721 22.8918 1.4541C20.6341 -0.531437 17.2441 -0.500388 15.0232 1.52617C15.0232 1.59169 13.3512 3.02062 2.73872 12.5003C1.44296 13.6553 0.687823 15.2986 0.655273 17.0341V20.3951C0.685994 22.7015 2.06163 24.7772 4.17377 25.7042C6.28592 26.6312 8.74491 26.2384 10.4632 24.6996L11.9963 23.3303C12.1892 23.1562 12.4667 23.1126 12.7037 23.219C12.9407 23.3254 13.0924 23.5619 13.0904 23.8217V31.8934C13.0523 35.0536 15.4583 37.7082 18.607 37.98C20.2371 38.0902 21.84 37.52 23.0344 36.4052C24.2287 35.2903 24.9077 33.7304 24.9098 32.0965V23.8217C24.9078 23.5619 25.0595 23.3254 25.2965 23.219C25.5335 23.1126 25.811 23.1562 26.0039 23.3303L27.537 24.6996C31.2918 28.041 37.3449 25.4531 37.3449 20.3886V17.0341C37.3165 15.299 36.5634 13.655 35.268 12.5003Z" fill="url(#paint0_linear_5701_37141)"/>
<path d="M35.268 12.5003L22.9377 1.49341C22.9246 1.48031 22.9049 1.46721 22.8918 1.4541C20.6341 -0.531437 17.2441 -0.500388 15.0232 1.52617C15.0232 1.59169 13.3512 3.02062 2.73872 12.5003C1.44296 13.6553 0.687823 15.2986 0.655273 17.0341V20.3951C0.685994 22.7015 2.06163 24.7772 4.17377 25.7042C6.28592 26.6312 8.74491 26.2384 10.4632 24.6996L11.9963 23.3303C12.1892 23.1562 12.4667 23.1126 12.7037 23.219C12.9407 23.3254 13.0924 23.5619 13.0904 23.8217V31.8934C13.0523 35.0536 15.4583 37.7082 18.607 37.98C20.2371 38.0902 21.84 37.52 23.0344 36.4052C24.2287 35.2903 24.9077 33.7304 24.9098 32.0965V23.8217C24.9078 23.5619 25.0595 23.3254 25.2965 23.219C25.5335 23.1126 25.811 23.1562 26.0039 23.3303L27.537 24.6996C31.2918 28.041 37.3449 25.4531 37.3449 20.3886V17.0341C37.3165 15.299 36.5634 13.655 35.268 12.5003Z" fill="url(#paint1_linear_5701_37141)"/>
<path d="M4.75216 15.0682C4.48039 15.0682 4.23683 14.9004 4.13997 14.6465C4.04312 14.3926 4.11308 14.1052 4.31581 13.9242L11.6537 7.3725C11.8284 7.21661 12.0729 7.16572 12.2952 7.239C12.5175 7.31227 12.6838 7.49859 12.7315 7.72776C12.7792 7.95692 12.7011 8.19413 12.5264 8.35002C4.53464 15.4855 5.11054 15.0682 4.75216 15.0682Z" fill="white"/>
<path d="M14.4138 6.44297C14.142 6.44298 13.8985 6.27522 13.8016 6.0213C13.7047 5.76738 13.7747 5.48002 13.9774 5.29904L16.5981 2.95942C16.7727 2.80353 17.0173 2.75263 17.2396 2.82591C17.4619 2.89919 17.6282 3.0855 17.6759 3.31467C17.7236 3.54384 17.6454 3.78104 17.4708 3.93693C14.6831 6.42594 14.7584 6.44297 14.4138 6.44297Z" fill="white"/>
<path d="M13.0904 20.545V23.8209C13.0924 23.5611 12.9407 23.3246 12.7037 23.2182C12.4667 23.1117 12.1892 23.1554 11.9963 23.3295L10.4632 24.6988C8.74509 26.2382 6.28579 26.6313 4.1734 25.7042C2.06101 24.7772 0.685433 22.701 0.655273 20.3943V17.125C0.688515 19.4302 2.06509 21.5036 4.1767 22.4289C6.28831 23.3543 8.7458 22.961 10.4632 21.4229L11.9963 20.0536C12.1892 19.8795 12.4667 19.8359 12.7037 19.9423C12.9407 20.0488 13.0924 20.2852 13.0904 20.545Z" fill="white"/>
<path d="M24.9097 28.8203V32.0962C24.9076 33.73 24.2287 35.2899 23.0343 36.4048C21.84 37.5197 20.2371 38.0898 18.607 37.9796C15.4583 37.7078 13.0523 35.0532 13.0904 31.893V28.6172C13.0523 31.7774 15.4583 34.4319 18.607 34.7037C20.2371 34.814 21.84 34.2438 23.0343 33.1289C24.2287 32.0141 24.9076 30.4541 24.9097 28.8203Z" fill="white"/>
<path d="M37.4352 16.999V20.2749C37.4076 22.5827 36.0329 24.6612 33.92 25.59C31.8071 26.5187 29.3463 26.1261 27.6273 24.5859L26.0942 23.2166C25.9013 23.0425 25.6238 22.9989 25.3868 23.1053C25.1497 23.2117 24.998 23.4482 25 23.708V20.4321C24.998 20.1723 25.1497 19.9359 25.3868 19.8294C25.6238 19.723 25.9013 19.7667 26.0942 19.9407L27.6273 21.3101C31.3821 24.6514 37.4352 22.0635 37.4352 16.999Z" fill="white"/>
</g>
<defs>
<linearGradient id="paint0_linear_5701_37141" x1="0.655273" y1="18.9894" x2="37.3449" y2="18.9894" gradientUnits="userSpaceOnUse">
<stop offset="0.075" stop-color="#054146"/>
<stop offset="1" stop-color="#054146" stop-opacity="0.4"/>
</linearGradient>
<linearGradient id="paint1_linear_5701_37141" x1="19.0001" y1="-0.0146484" x2="19.0001" y2="37.9934" gradientUnits="userSpaceOnUse">
<stop stop-color="#054146" stop-opacity="0.5"/>
<stop offset="1" stop-color="#0B4046"/>
</linearGradient>
<clipPath id="clip0_5701_37141">
<rect width="38" height="38" fill="white"/>
</clipPath>
</defs>
</svg>
