<svg width="15" height="15" viewBox="0 0 15 15" fill="none" xmlns="http://www.w3.org/2000/svg">
<path d="M5.13661 3.1356C4.97102 3.29996 4.95597 3.55716 5.09145 3.7384L5.13661 3.79033L8.87412 7.5L5.13661 11.2097C4.97102 11.374 4.95597 11.6312 5.09145 11.8125L5.13661 11.8644C5.3022 12.0288 5.56132 12.0437 5.74391 11.9092L5.79623 11.8644L9.86339 7.82736C10.029 7.663 10.044 7.4058 9.90855 7.22456L9.86339 7.17264L5.79623 3.1356C5.61408 2.9548 5.31876 2.9548 5.13661 3.1356Z" fill="url(#paint0_linear_5701_36284)"/>
<path d="M5.13661 3.1356C4.97102 3.29996 4.95597 3.55716 5.09145 3.7384L5.13661 3.79033L8.87412 7.5L5.13661 11.2097C4.97102 11.374 4.95597 11.6312 5.09145 11.8125L5.13661 11.8644C5.3022 12.0288 5.56132 12.0437 5.74391 11.9092L5.79623 11.8644L9.86339 7.82736C10.029 7.663 10.044 7.4058 9.90855 7.22456L9.86339 7.17264L5.79623 3.1356C5.61408 2.9548 5.31876 2.9548 5.13661 3.1356Z" fill="url(#paint1_linear_5701_36284)"/>
<defs>
<linearGradient id="paint0_linear_5701_36284" x1="7.5" y1="12" x2="7.5" y2="3" gradientUnits="userSpaceOnUse">
<stop offset="0.075" stop-color="#054146"/>
<stop offset="1" stop-color="#054146" stop-opacity="0.4"/>
</linearGradient>
<linearGradient id="paint1_linear_5701_36284" x1="10" y1="7.5" x2="5" y2="7.5" gradientUnits="userSpaceOnUse">
<stop stop-color="#054146" stop-opacity="0.5"/>
<stop offset="1" stop-color="#0B4046"/>
</linearGradient>
</defs>
</svg>
